<?xml version="1.0" encoding="utf-8"?>
<!-- Generator: Adobe Illustrator 18.1.1, SVG Export Plug-In . SVG Version: 6.00 Build 0)  -->
<svg version="1.1" id="Layer_1" xmlns="http://www.w3.org/2000/svg" xmlns:xlink="http://www.w3.org/1999/xlink" x="0px" y="0px"
	 viewBox="95 353 600 225" enable-background="new 95 353 600 225" xml:space="preserve">
<g>
	<circle fill="#765373" cx="150.3" cy="429.4" r="24.2"/>
	<circle fill="#765373" cx="191.2" cy="429.4" r="24.2"/>
	<circle fill="#765373" cx="133.5" cy="468.1" r="24.2"/>
	<circle fill="#765373" cx="172.6" cy="466.6" r="24.2"/>
	<circle fill="#765373" cx="215.3" cy="463.8" r="24.2"/>
	<circle fill="#765373" cx="194.9" cy="498.2" r="24.2"/>
	<circle fill="#765373" cx="154" cy="504.5" r="24.2"/>
	<circle fill="#765373" cx="178.1" cy="534.4" r="24.2"/>
	<path fill="none" stroke="#59351C" stroke-width="7.4336" stroke-linecap="round" stroke-miterlimit="10" d="M167.6,412
		c0,0-11.7-14.3-0.7-39.7"/>
	
		<path fill="#7AA20D" stroke="#7AA20D" stroke-width="2.7119" stroke-linecap="round" stroke-linejoin="round" stroke-miterlimit="10" d="
		M164,407.3c-0.2-4.2,1.9-8.6,6.3-12.5c9.2-8.1,18-8.9,29.5-7c0,0,14.9,2.4,20.4-10.2c-3.4,7.8-6.7,15.5-11,23
		c-6.9,12.1-21,29.8-36.6,19.7C167.2,416.8,164.2,412.2,164,407.3z"/>
</g>
<g>
	<path fill="none" stroke="#59351C" stroke-width="6.6089" stroke-linecap="round" stroke-miterlimit="10" d="M623.2,413.8
		c0,0-7.1-14.8,7.8-34.5"/>
	<path fill="#BBC42A" d="M573.7,496.5c-0.5,1.7-1,3.4-1.4,5.2c-6.4,28.5,7.2,52.3,41.6,54.5c54.8,3.6,74.7-24.7,58.1-64.7
		c-16.5-40-24.2-30.4-25.8-61.1c-0.7-13.8-10.7-26.1-25.2-23.6c-16.7,2.9-19,19.2-21.3,33.1C596.2,461,580.1,476.8,573.7,496.5z"/>
	
		<path fill="#7AA20D" stroke="#7AA20D" stroke-width="2.411" stroke-linecap="round" stroke-linejoin="round" stroke-miterlimit="10" d="
		M621.1,409c0.8-3.7,3.4-7.1,8-9.5c9.7-5,17.4-3.9,27,0.2c0,0,12.3,5.2,19.7-4.5c-4.6,6-9.1,12-14.3,17.5c-8.5,9-24.4,21.3-35.7,9.3
		C621.8,417.8,620.2,413.2,621.1,409z"/>
</g>
<g>
	<path fill="none" stroke="#59351C" stroke-width="5.8119" stroke-linecap="round" stroke-miterlimit="10" d="M394.5,426.7
		c0,0-6.9-12.7,5.2-30.6"/>
	
		<path fill="#ED6E46" stroke="#ED6E46" stroke-width="4.0603" stroke-linecap="round" stroke-linejoin="round" stroke-miterlimit="10" d="
		M458.3,488.9c-3.6,39-25.3,68.8-48.5,66.7c-4.9-0.5-9.4-2.3-13.5-5.2c-3.5,2.5-7.3,4.1-11.4,4.7c-23,3.5-46.4-25-52.3-63.7
		s8-72.9,31-76.4c10.7-1.6,21.5,3.7,30.6,13.8c8.3-9.8,18.4-15.2,28.7-14.3C446,416.6,461.9,450,458.3,488.9z"/>
	
		<path fill="#7AA20D" stroke="#7AA20D" stroke-width="2.2848" stroke-linecap="round" stroke-linejoin="round" stroke-miterlimit="10" d="
		M393.2,422.5c0.7-3.5,3.2-6.7,7.6-9c9.2-4.8,16.5-3.7,25.6,0.2c0,0,11.7,5,18.7-4.3c-4.4,5.7-8.6,11.4-13.6,16.6
		c-8.1,8.5-23.1,20.2-33.9,8.8C393.9,430.9,392.3,426.5,393.2,422.5z"/>
</g>
</svg>
